<svg width="44" height="37" viewBox="0 0 44 37" fill="none" xmlns="http://www.w3.org/2000/svg">
<path d="M2.76569 28.4099L10.796 18.2423L15.5863 26.5393L2.76569 28.4099Z" fill="#1DB158"/>
<circle cx="23.2317" cy="15.5941" r="15.4878" fill="#1DB158"/>
<path d="M14.416 20.508C14.943 20.722 15.3719 20.8893 15.7028 21.0099L19.3457 8.98108C18.9313 8.88957 18.476 8.8095 17.9798 8.74085L14.416 20.508ZM24.3681 18.8793C24.6861 18.3906 24.965 17.7506 25.2047 16.9593C25.4462 16.1617 25.5148 15.3288 25.4104 14.4605C25.308 13.586 25.0391 12.8005 24.6038 12.104C23.7095 10.6768 22.2859 9.72866 20.3328 9.2596L16.6841 21.3071C18.4866 21.9142 20.201 21.8348 21.8275 21.0689C22.8807 20.5784 23.7276 19.8486 24.3681 18.8793ZM16.9568 8.6147L15.3884 8.53764C15.2451 8.49423 15.1449 8.40948 15.0878 8.28336C15.0327 8.15102 15.023 8.02565 15.0589 7.90726C15.1344 7.65803 15.2906 7.53528 15.5276 7.53901C15.5544 7.54033 15.7037 7.54135 15.9756 7.54206C16.2556 7.53843 16.6207 7.55715 17.0708 7.59824C18.2516 7.69736 19.3966 7.91488 20.5057 8.25078C21.621 8.58856 22.6016 9.04541 23.4476 9.62133C24.2954 10.191 24.9743 10.8694 25.4842 11.6564C26.5729 13.3399 26.7776 15.3031 26.0983 17.5463C25.6492 19.0292 24.8734 20.2092 23.7711 21.0862C22.7595 21.8886 21.5331 22.3777 20.0922 22.5535C18.7043 22.7114 17.2689 22.5658 15.7859 22.1167C14.278 21.66 12.9695 21.0392 11.8603 20.2543C11.6687 20.101 11.6002 19.9341 11.6549 19.7534C11.7096 19.5727 11.8041 19.4516 11.9383 19.3902C12.0726 19.3289 12.202 19.317 12.3266 19.3548L13.4893 20.064L16.9568 8.6147ZM27.9072 24.7469C28.0318 24.7846 28.1519 24.77 28.2674 24.7029C28.3892 24.6378 28.468 24.546 28.5038 24.4276C28.5397 24.3092 28.5241 24.1923 28.4571 24.0767C28.3981 23.9568 28.3064 23.878 28.1817 23.8403C28.0571 23.8025 27.937 23.8172 27.8215 23.8842C27.7141 23.9469 27.6424 24.0375 27.6066 24.1559C27.5707 24.2743 27.5792 24.3924 27.6319 24.5104C27.6908 24.6303 27.7825 24.7091 27.9072 24.7469ZM29.7046 18.8119C30.9064 16.3937 31.678 14.6207 32.0196 13.4929C32.0743 13.3122 32.0582 13.1406 31.9713 12.9783C31.8863 12.8097 31.7535 12.698 31.5728 12.6433C31.3983 12.5905 31.2259 12.6097 31.0554 12.7009C30.8868 12.7859 30.7638 12.9561 30.6864 13.2116C30.6091 13.467 30.5249 13.8123 30.434 14.2473C30.3431 14.6823 30.2561 15.1492 30.1731 15.6478C30.0458 16.4051 29.8896 17.4598 29.7046 18.8119ZM29.4759 24.722C29.4174 24.9151 29.3243 25.0876 29.1967 25.2395C29.0691 25.3913 28.9232 25.5137 28.7589 25.6069C28.3998 25.8042 28.0178 25.8416 27.6128 25.7189C27.214 25.5981 26.9169 25.3551 26.7214 24.9898C26.5259 24.6245 26.4886 24.2424 26.6094 23.8436C26.7962 23.2268 27.2202 22.8824 27.8814 22.8106C28.0785 22.7886 28.2767 22.8079 28.4761 22.8683C28.8687 22.9871 29.1667 23.2271 29.3703 23.588C29.5633 23.939 29.5985 24.317 29.4759 24.722ZM29.3015 21.9958C29.1303 22.3589 28.9014 22.4971 28.6148 22.4103C28.4964 22.3744 28.4018 22.305 28.331 22.2019C28.2683 22.0945 28.2532 21.9198 28.2856 21.6779C28.3243 21.438 28.3672 21.1278 28.4143 20.7476C28.4615 20.3673 28.5191 19.9188 28.5872 19.402C28.6633 18.8809 28.7431 18.303 28.8265 17.6685C28.9179 17.0295 29.0112 16.4183 29.1063 15.8349C29.323 14.5128 29.5012 13.6213 29.6408 13.1602C29.7805 12.6991 29.92 12.3842 30.0595 12.2156C30.2072 12.0426 30.3784 11.904 30.5732 11.7998C30.9872 11.5782 31.4186 11.5354 31.8672 11.6713C32.322 11.809 32.6602 12.0849 32.8818 12.4989C33.1077 12.9211 33.1574 13.3409 33.031 13.7583C32.6951 14.8675 32.0143 16.4639 30.9886 18.5478C29.9711 20.6273 29.4087 21.7766 29.3015 21.9958Z" fill="#181818"/>
</svg>
