<svg width="88" height="74" viewBox="0 0 88 74" fill="none" xmlns="http://www.w3.org/2000/svg">
<path d="M5.55344 57.0467L21.6782 36.6302L31.297 53.2905L5.55344 57.0467Z" fill="#181818"/>
<circle cx="46.6489" cy="31.3127" r="31.0993" fill="#181818"/>
<path d="M28.9651 41.0159C30.0191 41.444 30.8769 41.7786 31.5385 42.0198L38.8245 17.9622C37.9956 17.7792 37.0849 17.619 36.0925 17.4817L28.9651 41.0159ZM48.8691 37.7587C49.5053 36.7813 50.063 35.5013 50.5423 33.9186C51.0254 32.3235 51.1626 30.6576 50.9539 28.921C50.7489 27.172 50.2111 25.601 49.3405 24.2081C47.552 21.3536 44.7047 19.4573 40.7985 18.5192L33.5012 42.6142C37.1061 43.8284 40.535 43.6696 43.7879 42.1379C45.8945 41.1569 47.5882 39.6972 48.8691 37.7587ZM34.0466 17.2294L30.9097 17.0753C30.6231 16.9885 30.4228 16.819 30.3087 16.5667C30.1984 16.302 30.1791 16.0513 30.2508 15.8145C30.4018 15.3161 30.7142 15.0706 31.1881 15.078C31.2417 15.0807 31.5404 15.0827 32.0842 15.0841C32.6442 15.0769 33.3743 15.1143 34.2745 15.1965C36.6362 15.3947 38.9261 15.8298 41.1443 16.5016C43.375 17.1771 45.3363 18.0908 47.0281 19.2427C48.7238 20.382 50.0816 21.7388 51.1014 23.3129C53.2788 26.6797 53.6882 30.6063 52.3295 35.0925C51.4313 38.0585 49.8799 40.4184 47.6753 42.1724C45.6519 43.7772 43.1993 44.7554 40.3174 45.1071C37.5416 45.4228 34.6707 45.1316 31.7048 44.2333C28.689 43.32 26.072 42.0784 23.8536 40.5087C23.4703 40.2021 23.3333 39.8681 23.4428 39.5067C23.5522 39.1453 23.7412 38.9033 24.0097 38.7805C24.2781 38.6577 24.537 38.6341 24.7862 38.7096L27.1116 40.1281L34.0466 17.2294ZM55.9473 49.4938C56.1966 49.5692 56.4367 49.5399 56.6678 49.4059C56.9113 49.2755 57.069 49.092 57.1407 48.8552C57.2124 48.6184 57.1812 48.3845 57.0471 48.1534C56.9292 47.9137 56.7457 47.756 56.4965 47.6806C56.2472 47.6051 56.0071 47.6344 55.776 47.7685C55.5611 47.8939 55.4179 48.075 55.3462 48.3117C55.2744 48.5485 55.2913 48.7849 55.3967 49.0209C55.5145 49.2607 55.6981 49.4183 55.9473 49.4938ZM59.5422 37.6238C61.9457 32.7874 63.489 29.2413 64.1721 26.9857C64.2816 26.6243 64.2494 26.2813 64.0757 25.9565C63.9057 25.6194 63.64 25.3961 63.2786 25.2866C62.9297 25.1809 62.5847 25.2193 62.2438 25.4018C61.9066 25.5717 61.6606 25.9122 61.5059 26.4231C61.3511 26.9341 61.1828 27.6246 61.001 28.4946C60.8191 29.3647 60.6452 30.2983 60.4792 31.2956C60.2245 32.8103 59.9122 34.9197 59.5422 37.6238ZM59.0847 49.444C58.9677 49.8303 58.7816 50.1753 58.5264 50.4789C58.2712 50.7826 57.9793 51.0275 57.6508 51.2137C56.9327 51.6084 56.1686 51.6831 55.3586 51.4378C54.561 51.1963 53.9667 50.7102 53.5758 49.9796C53.1848 49.2489 53.1101 48.4849 53.3517 47.6873C53.7253 46.4536 54.5733 45.7649 55.8957 45.6212C56.2899 45.5773 56.6864 45.6157 57.0852 45.7365C57.8703 45.9743 58.4665 46.4541 58.8736 47.1761C59.2597 47.878 59.33 48.634 59.0847 49.444ZM58.7361 43.9917C58.3937 44.7179 57.9359 44.9942 57.3626 44.8206C57.1258 44.7489 56.9366 44.6099 56.795 44.4038C56.6696 44.1889 56.6393 43.8396 56.7042 43.3559C56.7815 42.8759 56.8673 42.2557 56.9616 41.4952C57.0559 40.7346 57.1711 39.8376 57.3073 38.8041C57.4597 37.7618 57.6192 36.6061 57.7859 35.3369C57.9689 34.059 58.1554 32.8367 58.3455 31.6698C58.779 29.0257 59.1353 27.2425 59.4146 26.3204C59.6939 25.3982 59.9731 24.7685 60.2521 24.4312C60.5473 24.0853 60.8898 23.8081 61.2794 23.5996C62.1075 23.1565 62.9701 23.0708 63.8674 23.3426C64.7771 23.6181 65.4535 24.1698 65.8965 24.9979C66.3483 25.8421 66.4478 26.6818 66.1949 27.5167C65.5231 29.7349 64.1615 32.9279 62.1103 37.0955C60.0752 41.2545 58.9505 43.5532 58.7361 43.9917Z" fill="#1DB158"/>
</svg>
