<svg width="155" height="41" viewBox="0 0 155 41" fill="none" xmlns="http://www.w3.org/2000/svg">
<path d="M113.766 31.4099L121.796 21.2423L126.586 29.5393L113.766 31.4099Z" fill="#1DB158"/>
<circle cx="134.232" cy="18.5941" r="15.4878" fill="#1DB158"/>
<path d="M125.416 23.508C125.943 23.722 126.372 23.8893 126.703 24.0099L130.346 11.9811C129.931 11.8896 129.476 11.8095 128.98 11.7408L125.416 23.508ZM135.368 21.8793C135.686 21.3906 135.965 20.7506 136.205 19.9593C136.446 19.1617 136.515 18.3288 136.41 17.4605C136.308 16.586 136.039 15.8005 135.604 15.104C134.71 13.6768 133.286 12.7287 131.333 12.2596L127.684 24.3071C129.487 24.9142 131.201 24.8348 132.827 24.0689C133.881 23.5784 134.728 22.8486 135.368 21.8793ZM127.957 11.6147L126.388 11.5376C126.245 11.4942 126.145 11.4095 126.088 11.2834C126.033 11.151 126.023 11.0257 126.059 10.9073C126.134 10.658 126.291 10.5353 126.528 10.539C126.554 10.5403 126.704 10.5413 126.976 10.5421C127.256 10.5384 127.621 10.5572 128.071 10.5982C129.252 10.6974 130.397 10.9149 131.506 11.2508C132.621 11.5886 133.602 12.0454 134.448 12.6213C135.295 13.191 135.974 13.8694 136.484 14.6564C137.573 16.3399 137.778 18.3031 137.098 20.5463C136.649 22.0292 135.873 23.2092 134.771 24.0862C133.759 24.8886 132.533 25.3777 131.092 25.5535C129.704 25.7114 128.269 25.5658 126.786 25.1167C125.278 24.66 123.969 24.0392 122.86 23.2543C122.669 23.101 122.6 22.9341 122.655 22.7534C122.71 22.5727 122.804 22.4516 122.938 22.3902C123.073 22.3289 123.202 22.317 123.327 22.3548L124.489 23.064L127.957 11.6147ZM138.907 27.7469C139.032 27.7846 139.152 27.77 139.267 27.7029C139.389 27.6378 139.468 27.546 139.504 27.4276C139.54 27.3092 139.524 27.1923 139.457 27.0767C139.398 26.9568 139.306 26.878 139.182 26.8403C139.057 26.8025 138.937 26.8172 138.822 26.8842C138.714 26.9469 138.642 27.0375 138.607 27.1559C138.571 27.2743 138.579 27.3924 138.632 27.5104C138.691 27.6303 138.783 27.7091 138.907 27.7469ZM140.705 21.8119C141.906 19.3937 142.678 17.6207 143.02 16.4929C143.074 16.3122 143.058 16.1406 142.971 15.9783C142.886 15.8097 142.754 15.698 142.573 15.6433C142.398 15.5905 142.226 15.6097 142.055 15.7009C141.887 15.7859 141.764 15.9561 141.686 16.2116C141.609 16.467 141.525 16.8123 141.434 17.2473C141.343 17.6823 141.256 18.1492 141.173 18.6478C141.046 19.4051 140.89 20.4598 140.705 21.8119ZM140.476 27.722C140.417 27.9151 140.324 28.0876 140.197 28.2395C140.069 28.3913 139.923 28.5137 139.759 28.6069C139.4 28.8042 139.018 28.8416 138.613 28.7189C138.214 28.5981 137.917 28.3551 137.721 27.9898C137.526 27.6245 137.489 27.2424 137.609 26.8436C137.796 26.2268 138.22 25.8824 138.881 25.8106C139.078 25.7886 139.277 25.8079 139.476 25.8683C139.869 25.9871 140.167 26.2271 140.37 26.588C140.563 26.939 140.599 27.317 140.476 27.722ZM140.302 24.9958C140.13 25.3589 139.901 25.4971 139.615 25.4103C139.496 25.3744 139.402 25.305 139.331 25.2019C139.268 25.0945 139.253 24.9198 139.286 24.6779C139.324 24.438 139.367 24.1278 139.414 23.7476C139.461 23.3673 139.519 22.9188 139.587 22.402C139.663 21.8809 139.743 21.303 139.826 20.6685C139.918 20.0295 140.011 19.4183 140.106 18.8349C140.323 17.5128 140.501 16.6213 140.641 16.1602C140.78 15.6991 140.92 15.3842 141.06 15.2156C141.207 15.0426 141.378 14.904 141.573 14.7998C141.987 14.5782 142.419 14.5354 142.867 14.6713C143.322 14.809 143.66 15.0849 143.882 15.4989C144.108 15.9211 144.157 16.3409 144.031 16.7583C143.695 17.8675 143.014 19.4639 141.989 21.5478C140.971 23.6273 140.409 24.7766 140.302 24.9958Z" fill="#181818"/>
<path d="M9.9292 32H4.46045L4.49463 27.6934H9.9292C11.1711 27.6934 12.2192 27.4085 13.0737 26.8389C13.9282 26.2578 14.5776 25.4033 15.022 24.2754C15.4663 23.1361 15.6885 21.7518 15.6885 20.1226V18.9775C15.6885 17.7471 15.5632 16.6647 15.3125 15.7305C15.0618 14.7848 14.6916 13.993 14.2017 13.355C13.7118 12.717 13.1022 12.2384 12.373 11.9194C11.6553 11.6004 10.8293 11.4409 9.89502 11.4409H4.35791V7.11719H9.89502C11.5812 7.11719 13.1193 7.40202 14.5093 7.97168C15.9106 8.54134 17.1183 9.35596 18.1323 10.4155C19.1577 11.4751 19.9495 12.7284 20.5078 14.1753C21.0661 15.6222 21.3452 17.2344 21.3452 19.0117V20.1226C21.3452 21.8885 21.0661 23.5007 20.5078 24.959C19.9495 26.4059 19.1577 27.6592 18.1323 28.7188C17.1183 29.7669 15.9163 30.5758 14.5264 31.1455C13.1364 31.7152 11.604 32 9.9292 32ZM7.62207 7.11719V32H2.05078V7.11719H7.62207ZM43.6167 7.11719H49.188V23.4551C49.188 25.3919 48.7778 27.0212 47.9575 28.3428C47.1486 29.6644 46.0207 30.6613 44.5737 31.3335C43.1268 32.0057 41.452 32.3418 39.5493 32.3418C37.6353 32.3418 35.9491 32.0057 34.4907 31.3335C33.0438 30.6613 31.9045 29.6644 31.0728 28.3428C30.2524 27.0212 29.8423 25.3919 29.8423 23.4551V7.11719H35.4307V23.4551C35.4307 24.526 35.5902 25.4033 35.9092 26.0869C36.2396 26.7591 36.7124 27.2547 37.3276 27.5737C37.9429 27.8813 38.6834 28.0352 39.5493 28.0352C40.4152 28.0352 41.1501 27.8813 41.7539 27.5737C42.3691 27.2547 42.8306 26.7591 43.1382 26.0869C43.4572 25.4033 43.6167 24.526 43.6167 23.4551V7.11719ZM66.2983 32H60.8296L60.8638 27.6934H66.2983C67.5402 27.6934 68.5884 27.4085 69.4429 26.8389C70.2974 26.2578 70.9468 25.4033 71.3911 24.2754C71.8354 23.1361 72.0576 21.7518 72.0576 20.1226V18.9775C72.0576 17.7471 71.9323 16.6647 71.6816 15.7305C71.431 14.7848 71.0607 13.993 70.5708 13.355C70.0809 12.717 69.4714 12.2384 68.7422 11.9194C68.0244 11.6004 67.1984 11.4409 66.2642 11.4409H60.7271V7.11719H66.2642C67.9504 7.11719 69.4884 7.40202 70.8784 7.97168C72.2798 8.54134 73.4875 9.35596 74.5015 10.4155C75.5269 11.4751 76.3187 12.7284 76.877 14.1753C77.4352 15.6222 77.7144 17.2344 77.7144 19.0117V20.1226C77.7144 21.8885 77.4352 23.5007 76.877 24.959C76.3187 26.4059 75.5269 27.6592 74.5015 28.7188C73.4875 29.7669 72.2855 30.5758 70.8955 31.1455C69.5055 31.7152 67.9731 32 66.2983 32ZM63.9912 7.11719V32H58.4199V7.11719H63.9912ZM103.284 27.6934V32H90.0396V27.6934H103.284ZM91.9365 7.11719V32H86.3652V7.11719H91.9365ZM101.575 17.1318V21.3018H90.0396V17.1318H101.575ZM103.301 7.11719V11.4409H90.0396V7.11719H103.301Z" fill="#1DB158"/>
</svg>
