<svg width="279" height="74" viewBox="0 0 279 74" fill="none" xmlns="http://www.w3.org/2000/svg">
<path d="M196.553 57.0467L212.678 36.6302L222.297 53.2905L196.553 57.0467Z" fill="#181818"/>
<circle cx="237.649" cy="31.3127" r="31.0993" fill="#181818"/>
<path d="M219.965 41.0159C221.019 41.444 221.877 41.7786 222.538 42.0198L229.824 17.9622C228.996 17.7792 228.085 17.619 227.093 17.4817L219.965 41.0159ZM239.869 37.7587C240.505 36.7813 241.063 35.5013 241.542 33.9186C242.025 32.3235 242.163 30.6576 241.954 28.921C241.749 27.172 241.211 25.601 240.341 24.2081C238.552 21.3536 235.705 19.4573 231.799 18.5192L224.501 42.6142C228.106 43.8284 231.535 43.6696 234.788 42.1379C236.894 41.1569 238.588 39.6972 239.869 37.7587ZM225.047 17.2294L221.91 17.0753C221.623 16.9885 221.423 16.819 221.309 16.5667C221.198 16.302 221.179 16.0513 221.251 15.8145C221.402 15.3161 221.714 15.0706 222.188 15.078C222.242 15.0807 222.54 15.0827 223.084 15.0841C223.644 15.0769 224.374 15.1143 225.275 15.1965C227.636 15.3947 229.926 15.8298 232.144 16.5016C234.375 17.1771 236.336 18.0908 238.028 19.2427C239.724 20.382 241.082 21.7388 242.101 23.3129C244.279 26.6797 244.688 30.6063 243.33 35.0925C242.431 38.0585 240.88 40.4184 238.675 42.1724C236.652 43.7772 234.199 44.7554 231.317 45.1071C228.542 45.4228 225.671 45.1316 222.705 44.2333C219.689 43.32 217.072 42.0784 214.854 40.5087C214.47 40.2021 214.333 39.8681 214.443 39.5067C214.552 39.1453 214.741 38.9033 215.01 38.7805C215.278 38.6577 215.537 38.6341 215.786 38.7096L218.112 40.1281L225.047 17.2294ZM246.947 49.4938C247.197 49.5692 247.437 49.5399 247.668 49.4059C247.911 49.2755 248.069 49.092 248.141 48.8552C248.212 48.6184 248.181 48.3845 248.047 48.1534C247.929 47.9137 247.746 47.756 247.496 47.6806C247.247 47.6051 247.007 47.6344 246.776 47.7685C246.561 47.8939 246.418 48.075 246.346 48.3117C246.274 48.5485 246.291 48.7849 246.397 49.0209C246.515 49.2607 246.698 49.4183 246.947 49.4938ZM250.542 37.6238C252.946 32.7874 254.489 29.2413 255.172 26.9857C255.282 26.6243 255.249 26.2813 255.076 25.9565C254.906 25.6194 254.64 25.3961 254.279 25.2866C253.93 25.1809 253.585 25.2193 253.244 25.4018C252.907 25.5717 252.661 25.9122 252.506 26.4231C252.351 26.9341 252.183 27.6246 252.001 28.4946C251.819 29.3647 251.645 30.2983 251.479 31.2956C251.225 32.8103 250.912 34.9197 250.542 37.6238ZM250.085 49.444C249.968 49.8303 249.782 50.1753 249.526 50.4789C249.271 50.7826 248.979 51.0275 248.651 51.2137C247.933 51.6084 247.169 51.6831 246.359 51.4378C245.561 51.1963 244.967 50.7102 244.576 49.9796C244.185 49.2489 244.11 48.4849 244.352 47.6873C244.725 46.4536 245.573 45.7649 246.896 45.6212C247.29 45.5773 247.686 45.6157 248.085 45.7365C248.87 45.9743 249.466 46.4541 249.874 47.1761C250.26 47.878 250.33 48.634 250.085 49.444ZM249.736 43.9917C249.394 44.7179 248.936 44.9942 248.363 44.8206C248.126 44.7489 247.937 44.6099 247.795 44.4038C247.67 44.1889 247.639 43.8396 247.704 43.3559C247.782 42.8759 247.867 42.2557 247.962 41.4952C248.056 40.7346 248.171 39.8376 248.307 38.8041C248.46 37.7618 248.619 36.6061 248.786 35.3369C248.969 34.059 249.155 32.8367 249.346 31.6698C249.779 29.0257 250.135 27.2425 250.415 26.3204C250.694 25.3982 250.973 24.7685 251.252 24.4312C251.547 24.0853 251.89 23.8081 252.279 23.5996C253.107 23.1565 253.97 23.0708 254.867 23.3426C255.777 23.6181 256.453 24.1698 256.897 24.9979C257.348 25.8421 257.448 26.6818 257.195 27.5167C256.523 29.7349 255.162 32.9279 253.11 37.0955C251.075 41.2545 249.95 43.5532 249.736 43.9917Z" fill="#1DB158"/>
<path d="M18.1562 59H8.15625L8.21875 51.125H18.1562C20.4271 51.125 22.3438 50.6042 23.9062 49.5625C25.4688 48.5 26.6562 46.9375 27.4688 44.875C28.2812 42.7917 28.6875 40.2604 28.6875 37.2812V35.1875C28.6875 32.9375 28.4583 30.9583 28 29.25C27.5417 27.5208 26.8646 26.0729 25.9688 24.9062C25.0729 23.7396 23.9583 22.8646 22.625 22.2812C21.3125 21.6979 19.8021 21.4062 18.0938 21.4062H7.96875V13.5H18.0938C21.1771 13.5 23.9896 14.0208 26.5312 15.0625C29.0938 16.1042 31.3021 17.5938 33.1562 19.5312C35.0312 21.4688 36.4792 23.7604 37.5 26.4062C38.5208 29.0521 39.0312 32 39.0312 35.25V37.2812C39.0312 40.5104 38.5208 43.4583 37.5 46.125C36.4792 48.7708 35.0312 51.0625 33.1562 53C31.3021 54.9167 29.1042 56.3958 26.5625 57.4375C24.0208 58.4792 21.2188 59 18.1562 59ZM13.9375 13.5V59H3.75V13.5H13.9375ZM79.7562 13.5H89.9437V43.375C89.9437 46.9167 89.1937 49.8958 87.6937 52.3125C86.2146 54.7292 84.1521 56.5521 81.5062 57.7812C78.8604 59.0104 75.7979 59.625 72.3187 59.625C68.8187 59.625 65.7354 59.0104 63.0687 57.7812C60.4229 56.5521 58.3396 54.7292 56.8187 52.3125C55.3187 49.8958 54.5687 46.9167 54.5687 43.375V13.5H64.7875V43.375C64.7875 45.3333 65.0792 46.9375 65.6625 48.1875C66.2667 49.4167 67.1312 50.3229 68.2562 50.9062C69.3812 51.4688 70.7354 51.75 72.3187 51.75C73.9021 51.75 75.2458 51.4688 76.35 50.9062C77.475 50.3229 78.3187 49.4167 78.8812 48.1875C79.4646 46.9375 79.7562 45.3333 79.7562 43.375V13.5ZM121.231 59H111.231L111.294 51.125H121.231C123.502 51.125 125.419 50.6042 126.981 49.5625C128.544 48.5 129.731 46.9375 130.544 44.875C131.356 42.7917 131.762 40.2604 131.762 37.2812V35.1875C131.762 32.9375 131.533 30.9583 131.075 29.25C130.617 27.5208 129.94 26.0729 129.044 24.9062C128.148 23.7396 127.033 22.8646 125.7 22.2812C124.387 21.6979 122.877 21.4062 121.169 21.4062H111.044V13.5H121.169C124.252 13.5 127.065 14.0208 129.606 15.0625C132.169 16.1042 134.377 17.5938 136.231 19.5312C138.106 21.4688 139.554 23.7604 140.575 26.4062C141.596 29.0521 142.106 32 142.106 35.25V37.2812C142.106 40.5104 141.596 43.4583 140.575 46.125C139.554 48.7708 138.106 51.0625 136.231 53C134.377 54.9167 132.179 56.3958 129.637 57.4375C127.096 58.4792 124.294 59 121.231 59ZM117.012 13.5V59H106.825V13.5H117.012ZM188.863 51.125V59H164.644V51.125H188.863ZM168.113 13.5V59H157.925V13.5H168.113ZM185.738 31.8125V39.4375H164.644V31.8125H185.738ZM188.894 13.5V21.4062H164.644V13.5H188.894Z" fill="#181818"/>
</svg>
